<svg version="1.1" xmlns="http://www.w3.org/2000/svg" viewBox="0 0 1275.703125 743.5958857849871" width="1275.703125" height="743.5958857849871">
  <!-- svg-source:excalidraw -->
  
  <defs>
    <style class="style-fonts">
      @font-face {
        font-family: "Virgil";
        src: url("https://excalidraw.com/Virgil.woff2");
      }
      @font-face {
        font-family: "Cascadia";
        src: url("https://excalidraw.com/Cascadia.woff2");
      }
    </style>
    
  </defs>
  <g stroke-linecap="round" transform="translate(392.63671875 232.57421875) rotate(0 76.85546875 49.744140625)"><path d="M24.87 0 C65.22 0.9, 100.93 1.84, 128.84 0 M24.87 0 C54.05 -0.03, 84 -0.15, 128.84 0 M128.84 0 C146.2 1.96, 155.44 9.67, 153.71 24.87 M128.84 0 C143.55 0.09, 153.8 10.36, 153.71 24.87 M153.71 24.87 C155.13 38.36, 153.16 49.77, 153.71 74.62 M153.71 24.87 C154.18 44.11, 153.97 61.21, 153.71 74.62 M153.71 74.62 C152.36 90.73, 145.4 100.5, 128.84 99.49 M153.71 74.62 C151.97 89.09, 145.53 97.81, 128.84 99.49 M128.84 99.49 C104.72 101.41, 79.3 99.42, 24.87 99.49 M128.84 99.49 C103.94 99.68, 81.64 98.91, 24.87 99.49 M24.87 99.49 C6.89 97.81, -1.07 91.57, 0 74.62 M24.87 99.49 C9.53 98.85, 1.55 92.44, 0 74.62 M0 74.62 C2.17 55.61, 0.74 38.54, 0 24.87 M0 74.62 C-0.4 56.61, 0.25 41.08, 0 24.87 M0 24.87 C1.77 8.69, 7.38 -0.47, 24.87 0 M0 24.87 C1.54 6.77, 9.32 -0.36, 24.87 0" stroke="#1e1e1e" stroke-width="1" fill="none"></path></g><g stroke-linecap="round" transform="translate(395.234375 450.228515625) rotate(0 76.85546875 49.744140625)"><path d="M24.87 0 C56.17 0.51, 83.3 1.57, 128.84 0 M24.87 0 C45.86 -0.92, 69.14 0.25, 128.84 0 M128.84 0 C143.55 1.41, 152.56 9.16, 153.71 24.87 M128.84 0 C147.46 -2.22, 151.58 7.38, 153.71 24.87 M153.71 24.87 C153.98 39.64, 152.54 56.41, 153.71 74.62 M153.71 24.87 C152.8 43.33, 154.43 63.87, 153.71 74.62 M153.71 74.62 C155.05 91.36, 145.9 101.31, 128.84 99.49 M153.71 74.62 C154.16 90, 143.56 101.06, 128.84 99.49 M128.84 99.49 C97.68 101.51, 70.36 101.91, 24.87 99.49 M128.84 99.49 C89.33 98.88, 47.72 100.28, 24.87 99.49 M24.87 99.49 C9.08 98.81, 0.59 93.06, 0 74.62 M24.87 99.49 C9.92 101.59, 1 89.3, 0 74.62 M0 74.62 C0.43 61.42, -1.26 50.54, 0 24.87 M0 74.62 C-0.11 64.4, 0.72 52.54, 0 24.87 M0 24.87 C0.81 8.31, 10.03 0.55, 24.87 0 M0 24.87 C-1.86 8.16, 7 0.3, 24.87 0" stroke="#1e1e1e" stroke-width="1" fill="none"></path></g><g stroke-linecap="round" transform="translate(837.50390625 234.615234375) rotate(0 76.85546875 49.744140625)"><path d="M24.87 0 C49.55 0.95, 75.56 -1.68, 128.84 0 M24.87 0 C54.53 -1.13, 83.25 -0.81, 128.84 0 M128.84 0 C145.56 1.58, 154.47 10.23, 153.71 24.87 M128.84 0 C143.5 0.44, 152.4 9.99, 153.71 24.87 M153.71 24.87 C155.92 43.75, 155.3 59.38, 153.71 74.62 M153.71 24.87 C152.54 38.32, 153.61 49.41, 153.71 74.62 M153.71 74.62 C155.35 89.63, 146.69 99.74, 128.84 99.49 M153.71 74.62 C154.87 93.15, 143.3 101.41, 128.84 99.49 M128.84 99.49 C88.03 98.53, 48.69 98.5, 24.87 99.49 M128.84 99.49 C97.64 99.66, 66.34 98.38, 24.87 99.49 M24.87 99.49 C8.65 101.31, 0.44 91.93, 0 74.62 M24.87 99.49 C7.39 98.63, -0.54 91.62, 0 74.62 M0 74.62 C-1.72 62.38, 1.02 52.98, 0 24.87 M0 74.62 C-0.37 55.44, 0.23 38.45, 0 24.87 M0 24.87 C0.02 7.17, 7.75 1.66, 24.87 0 M0 24.87 C0.43 10.27, 9.88 -0.12, 24.87 0" stroke="#1e1e1e" stroke-width="1" fill="none"></path></g><g stroke-linecap="round" transform="translate(842.265625 454.939453125) rotate(0 76.85546875 49.744140625)"><path d="M24.87 0 C58.66 -1.38, 94.09 -1.63, 128.84 0 M24.87 0 C55.45 -1.14, 87.04 0.51, 128.84 0 M128.84 0 C144.39 0.85, 152.38 9.4, 153.71 24.87 M128.84 0 C145.45 1.98, 155.06 9.45, 153.71 24.87 M153.71 24.87 C154.57 36.95, 152.26 45.73, 153.71 74.62 M153.71 24.87 C154.65 43.9, 153.06 63.46, 153.71 74.62 M153.71 74.62 C152.75 89.98, 144.9 99.08, 128.84 99.49 M153.71 74.62 C151.75 90.07, 147.69 98.83, 128.84 99.49 M128.84 99.49 C94.63 98.72, 63.66 99.99, 24.87 99.49 M128.84 99.49 C93.73 100.05, 59.37 98.95, 24.87 99.49 M24.87 99.49 C7.27 100.73, 0.85 90.61, 0 74.62 M24.87 99.49 C6.3 97.35, -0.24 88.99, 0 74.62 M0 74.62 C-0.58 64.2, -1.66 51, 0 24.87 M0 74.62 C0.06 55.52, 0.67 34.94, 0 24.87 M0 24.87 C-0.37 7.05, 9.05 -0.68, 24.87 0 M0 24.87 C-1.94 6.92, 9.06 -1.81, 24.87 0" stroke="#1e1e1e" stroke-width="1" fill="none"></path></g><g transform="translate(882.9296875 264.515625) rotate(0 27.28997802734375 12.5)"><text x="0" y="0" font-family="Virgil, Segoe UI Emoji" font-size="20px" fill="#1e1e1e" text-anchor="start" style="white-space: pre;" direction="ltr" dominant-baseline="text-before-edge">POP3</text></g><g transform="translate(440.4525146484375 261.609375) rotate(0 23.189979553222656 12.5)"><text x="0" y="0" font-family="Virgil, Segoe UI Emoji" font-size="20px" fill="#1e1e1e" text-anchor="start" style="white-space: pre;" direction="ltr" dominant-baseline="text-before-edge">POP1</text></g><g transform="translate(436.6165771484375 487.04296875) rotate(0 27.5999755859375 12.5)"><text x="0" y="0" font-family="Virgil, Segoe UI Emoji" font-size="20px" fill="#1e1e1e" text-anchor="start" style="white-space: pre;" direction="ltr" dominant-baseline="text-before-edge">POP2</text></g><g transform="translate(894.1673583984375 485.55078125) rotate(0 26.879974365234375 12.5)"><text x="0" y="0" font-family="Virgil, Segoe UI Emoji" font-size="20px" fill="#1e1e1e" text-anchor="start" style="white-space: pre;" direction="ltr" dominant-baseline="text-before-edge">POP4</text></g><g stroke-linecap="round"><g transform="translate(556.82421875 274.2265625) rotate(0 134.30727951068081 -0.7510714512971219)"><path d="M0.13 -0.05 C44.9 -0.28, 223.85 -1, 268.6 -1.22 M0.02 -0.21 C44.77 -0.42, 223.72 -1.28, 268.46 -1.45" stroke="#1e1e1e" stroke-width="1" fill="none"></path></g></g><mask></mask><g stroke-linecap="round"><g transform="translate(928.53515625 342.78125) rotate(0 0.8315942632642646 52.65864725942777)"><path d="M0 -0.15 C0.31 17.44, 1.51 87.9, 1.84 105.46 M-0.18 0.1 C0.11 17.66, 1.36 87.7, 1.71 105.25" stroke="#1e1e1e" stroke-width="1" fill="none"></path></g></g><mask></mask><g stroke-linecap="round"><g transform="translate(557.77734375 506.5078125) rotate(0 136.9125392329787 -1.1500363072555615)"><path d="M-0.12 0.12 C45.5 -0.29, 228 -2.01, 273.67 -2.42 M0.1 0.05 C45.76 -0.34, 228.31 -1.77, 273.95 -2.22" stroke="#1e1e1e" stroke-width="1" fill="none"></path></g></g><mask></mask><g stroke-linecap="round"><g transform="translate(463.9296875 445.0234375) rotate(0 1.5077219297277793 -51.661022683032456)"><path d="M-0.01 0.11 C0.47 -17.12, 2.43 -86.17, 2.95 -103.44 M-0.2 0.04 C0.32 -17.17, 2.69 -86.03, 3.21 -103.26" stroke="#1e1e1e" stroke-width="1" fill="none"></path></g></g><mask></mask><g transform="translate(289.37890625 380.72265625) rotate(0 48.79998016357422 25)"><text x="0" y="0" font-family="Virgil, Segoe UI Emoji" font-size="20px" fill="#1e1e1e" text-anchor="start" style="white-space: pre;" direction="ltr" dominant-baseline="text-before-edge">10.0.1.0/31</text><text x="0" y="25" font-family="Virgil, Segoe UI Emoji" font-size="20px" fill="#1e1e1e" text-anchor="start" style="white-space: pre;" direction="ltr" dominant-baseline="text-before-edge">65001</text></g><g transform="translate(435.58984375 345.04296875) rotate(0 9.6199951171875 12.5)"><text x="0" y="0" font-family="Virgil, Segoe UI Emoji" font-size="20px" fill="#1e1e1e" text-anchor="start" style="white-space: pre;" direction="ltr" dominant-baseline="text-before-edge">.0</text></g><g transform="translate(438.8125 420.4375) rotate(0 5.4499969482421875 12.5)"><text x="0" y="0" font-family="Virgil, Segoe UI Emoji" font-size="20px" fill="#1e1e1e" text-anchor="start" style="white-space: pre;" direction="ltr" dominant-baseline="text-before-edge">.1</text></g><g transform="translate(645.4539260864258 556.90234375) rotate(0 53.20997619628906 25)"><text x="0" y="0" font-family="Virgil, Segoe UI Emoji" font-size="20px" fill="#1e1e1e" text-anchor="start" style="white-space: pre;" direction="ltr" dominant-baseline="text-before-edge">10.0.2.0/31</text><text x="0" y="25" font-family="Virgil, Segoe UI Emoji" font-size="20px" fill="#1e1e1e" text-anchor="start" style="white-space: pre;" direction="ltr" dominant-baseline="text-before-edge">65001</text></g><g transform="translate(561.9268798828125 517.75390625) rotate(0 9.6199951171875 12.5)"><text x="0" y="0" font-family="Virgil, Segoe UI Emoji" font-size="20px" fill="#1e1e1e" text-anchor="start" style="white-space: pre;" direction="ltr" dominant-baseline="text-before-edge">.0</text></g><g transform="translate(816.0734405517578 514.75) rotate(0 5.4499969482421875 12.5)"><text x="0" y="0" font-family="Virgil, Segoe UI Emoji" font-size="20px" fill="#1e1e1e" text-anchor="start" style="white-space: pre;" direction="ltr" dominant-baseline="text-before-edge">.1</text></g><g transform="translate(987.0595550537109 375.40625) rotate(0 52.89997863769531 25)"><text x="0" y="0" font-family="Virgil, Segoe UI Emoji" font-size="20px" fill="#1e1e1e" text-anchor="start" style="white-space: pre;" direction="ltr" dominant-baseline="text-before-edge">10.0.3.0/31</text><text x="0" y="25" font-family="Virgil, Segoe UI Emoji" font-size="20px" fill="#1e1e1e" text-anchor="start" style="white-space: pre;" direction="ltr" dominant-baseline="text-before-edge">65001</text></g><g transform="translate(940.4893798828125 345.9921875) rotate(0 9.6199951171875 12.5)"><text x="0" y="0" font-family="Virgil, Segoe UI Emoji" font-size="20px" fill="#1e1e1e" text-anchor="start" style="white-space: pre;" direction="ltr" dominant-baseline="text-before-edge">.0</text></g><g transform="translate(940.4562530517578 422.3984375) rotate(0 5.4499969482421875 12.5)"><text x="0" y="0" font-family="Virgil, Segoe UI Emoji" font-size="20px" fill="#1e1e1e" text-anchor="start" style="white-space: pre;" direction="ltr" dominant-baseline="text-before-edge">.1</text></g><g transform="translate(638.4672088623047 184.13671875) rotate(0 52.48997497558594 25)"><text x="0" y="0" font-family="Virgil, Segoe UI Emoji" font-size="20px" fill="#1e1e1e" text-anchor="start" style="white-space: pre;" direction="ltr" dominant-baseline="text-before-edge">10.0.4.0/31</text><text x="0" y="25" font-family="Virgil, Segoe UI Emoji" font-size="20px" fill="#1e1e1e" text-anchor="start" style="white-space: pre;" direction="ltr" dominant-baseline="text-before-edge">65001</text></g><g transform="translate(555.4346923828125 242.23046875) rotate(0 9.6199951171875 12.5)"><text x="0" y="0" font-family="Virgil, Segoe UI Emoji" font-size="20px" fill="#1e1e1e" text-anchor="start" style="white-space: pre;" direction="ltr" dominant-baseline="text-before-edge">.0</text></g><g transform="translate(814.7843780517578 240.33203125) rotate(0 5.4499969482421875 12.5)"><text x="0" y="0" font-family="Virgil, Segoe UI Emoji" font-size="20px" fill="#1e1e1e" text-anchor="start" style="white-space: pre;" direction="ltr" dominant-baseline="text-before-edge">.1</text></g><g stroke-linecap="round" transform="translate(1080.4453125 62.41796875) rotate(0 92.62890625 67.12109375)"><path d="M116.25 17 C129.56 25.7, 141.31 38.43, 162.01 51 M116.25 17 C127.41 25.57, 139.19 33.97, 162.01 51 M162.01 51 C183.38 67.57, 186.5 67.2, 162.01 85 M162.01 51 C186.63 68.81, 184.81 66.9, 162.01 85 M162.01 85 C152.55 93.52, 138.47 99.45, 116.25 117.24 M162.01 85 C150.56 93.8, 140.55 101.61, 116.25 117.24 M116.25 117.24 C91.97 135.49, 92.23 133.01, 69.75 117.24 M116.25 117.24 C92.25 136.35, 93.31 133.94, 69.75 117.24 M69.75 117.24 C58.57 110.51, 49.47 100.73, 23.25 85 M69.75 117.24 C54.28 107.87, 39.88 97.86, 23.25 85 M23.25 85 C1.58 67.1, -0.96 69.53, 23.25 51 M23.25 85 C-1.34 67.54, -0.66 66.5, 23.25 51 M23.25 51 C43.04 37.51, 59.11 24.11, 69.75 17 M23.25 51 C35.62 42.23, 48.96 33.1, 69.75 17 M69.75 17 C91.55 1.4, 91.75 -1.12, 116.25 17 M69.75 17 C92.92 -0.23, 93.4 -0.71, 116.25 17" stroke="#1e1e1e" stroke-width="1" fill="none"></path></g><g stroke-linecap="round" transform="translate(114.6171875 586.62109375) rotate(0 92.62890625 67.12109375)"><path d="M116.25 17 C132.73 27.96, 148.31 40.97, 162.01 51 M116.25 17 C126.74 24.79, 137.09 33.31, 162.01 51 M162.01 51 C183.73 66.66, 184.28 67.32, 162.01 85 M162.01 51 C184.18 67.84, 183.98 68.83, 162.01 85 M162.01 85 C147.4 95.68, 134.86 105.95, 116.25 117.24 M162.01 85 C148.41 94.4, 135.76 103.04, 116.25 117.24 M116.25 117.24 C94.27 134.33, 91.03 132.87, 69.75 117.24 M116.25 117.24 C91.91 131.96, 92.38 134.49, 69.75 117.24 M69.75 117.24 C53.98 105.88, 36.83 94.91, 23.25 85 M69.75 117.24 C53.67 106.35, 37.66 95.18, 23.25 85 M23.25 85 C1.17 68.78, 0.84 66.22, 23.25 51 M23.25 85 C1.72 69.92, -1.35 69, 23.25 51 M23.25 51 C38.15 38.87, 54.88 29.23, 69.75 17 M23.25 51 C33.51 43.96, 46.2 33.86, 69.75 17 M69.75 17 C94.66 1.29, 91.6 0.42, 116.25 17 M69.75 17 C93.49 -0.43, 94.37 -1.5, 116.25 17" stroke="#1e1e1e" stroke-width="1" fill="none"></path></g><g stroke-linecap="round"><g transform="translate(1004.8359375 227.5078125) rotate(0 46.62725627869361 -30.723214160078214)"><path d="M-0.79 0.78 C14.78 -9.5, 78.45 -50.16, 94.05 -60.72 M0.99 0.15 C16.39 -10.52, 77.63 -51.93, 93.34 -62.23" stroke="#1e1e1e" stroke-width="1" fill="none"></path></g><g transform="translate(1004.8359375 227.5078125) rotate(0 46.62725627869361 -30.723214160078214)"><path d="M75.59 -38.04 C82.92 -45.65, 89.78 -56.25, 93.34 -62.23 M75.59 -38.04 C79.07 -43.37, 83.12 -49.79, 93.34 -62.23" stroke="#1e1e1e" stroke-width="1" fill="none"></path></g><g transform="translate(1004.8359375 227.5078125) rotate(0 46.62725627869361 -30.723214160078214)"><path d="M64.19 -55.11 C75.65 -56.66, 86.51 -61.28, 93.34 -62.23 M64.19 -55.11 C70.52 -56.25, 77.33 -58.56, 93.34 -62.23" stroke="#1e1e1e" stroke-width="1" fill="none"></path></g></g><mask></mask><g stroke-linecap="round"><g transform="translate(382.11328125 535.48828125) rotate(0 -54.59185236173681 40.77605285200292)"><path d="M-0.95 0.67 C-18.95 13.86, -90.88 66.68, -108.76 79.99 M0.75 -0.02 C-17.37 13.31, -91.64 68.49, -109.94 81.57" stroke="#1e1e1e" stroke-width="1" fill="none"></path></g><g transform="translate(382.11328125 535.48828125) rotate(0 -54.59185236173681 40.77605285200292)"><path d="M-93.24 56.65 C-95.86 61.64, -100.74 68.29, -109.94 81.57 M-93.24 56.65 C-98.24 66.19, -105.85 74.6, -109.94 81.57" stroke="#1e1e1e" stroke-width="1" fill="none"></path></g><g transform="translate(382.11328125 535.48828125) rotate(0 -54.59185236173681 40.77605285200292)"><path d="M-81.12 73.22 C-86.7 74.23, -94.42 77, -109.94 81.57 M-81.12 73.22 C-90.3 76.93, -102.15 79.54, -109.94 81.57" stroke="#1e1e1e" stroke-width="1" fill="none"></path></g></g><mask></mask><g stroke-linecap="round"><g transform="translate(511.796875 204.9375) rotate(0 284.43769562164783 -72.24741132833238)"><path d="M1.06 1.1 C19.08 -17.77, 61.77 -88.17, 107.82 -112.21 C153.87 -136.24, 200.54 -146.34, 277.36 -143.11 C354.17 -139.89, 520.26 -101.5, 568.72 -92.85 M0.15 0.63 C18.1 -17.6, 61.13 -86.89, 107.19 -111.18 C153.26 -135.47, 199.61 -148.27, 276.52 -145.12 C353.44 -141.98, 519.8 -101.42, 568.67 -92.32" stroke="#1e1e1e" stroke-width="1" fill="none"></path></g><g transform="translate(511.796875 204.9375) rotate(0 284.43769562164783 -72.24741132833238)"><path d="M538.96 -88.11 C548.9 -88.5, 553.6 -90.89, 568.67 -92.32 M538.96 -88.11 C548.5 -88.85, 559.01 -90.97, 568.67 -92.32" stroke="#1e1e1e" stroke-width="1" fill="none"></path></g><g transform="translate(511.796875 204.9375) rotate(0 284.43769562164783 -72.24741132833238)"><path d="M543.21 -108.19 C552.15 -103.03, 555.69 -99.92, 568.67 -92.32 M543.21 -108.19 C551.15 -101.88, 560.16 -96.91, 568.67 -92.32" stroke="#1e1e1e" stroke-width="1" fill="none"></path></g></g><mask></mask><g stroke-linecap="round"><g transform="translate(1015.4453125 513.70703125) rotate(0 89.62775548561012 -151.29651059657334)"><path d="M-0.36 1.03 C22.45 -11.64, 107.45 -25.53, 137.05 -76.3 C166.65 -127.08, 170.48 -265.61, 177.24 -303.62 M1.65 0.52 C24.37 -11.94, 106.99 -24.43, 136.65 -74.94 C166.31 -125.44, 172.8 -264.34, 179.62 -302.5" stroke="#1e1e1e" stroke-width="1" fill="none"></path></g><g transform="translate(1015.4453125 513.70703125) rotate(0 89.62775548561012 -151.29651059657334)"><path d="M186.49 -273.3 C186.11 -280.8, 181.69 -293.42, 179.62 -302.5 M186.49 -273.3 C185.14 -282.21, 182.79 -289.53, 179.62 -302.5" stroke="#1e1e1e" stroke-width="1" fill="none"></path></g><g transform="translate(1015.4453125 513.70703125) rotate(0 89.62775548561012 -151.29651059657334)"><path d="M166.11 -275.71 C172.17 -282.38, 174.18 -294.25, 179.62 -302.5 M166.11 -275.71 C170.22 -283.78, 173.35 -290.45, 179.62 -302.5" stroke="#1e1e1e" stroke-width="1" fill="none"></path></g></g><mask></mask><g stroke-linecap="round"><g transform="translate(878.671875 576.19921875) rotate(0 -289.5310310200136 77.87942724582632)"><path d="M-0.38 -0.39 C-13.38 24.94, 19.78 134.24, -76.85 152.2 C-173.48 170.16, -496.22 114.67, -580.19 107.38 M1.62 -1.64 C-11.54 23.87, 19.86 135.42, -77.19 153.75 C-174.24 172.08, -496.81 115.69, -580.68 108.36" stroke="#1e1e1e" stroke-width="1" fill="none"></path></g><g transform="translate(878.671875 576.19921875) rotate(0 -289.5310310200136 77.87942724582632)"><path d="M-551.4 101.81 C-563.61 106.23, -574.49 107.76, -580.68 108.36 M-551.4 101.81 C-558.47 102.61, -566.12 104.98, -580.68 108.36" stroke="#1e1e1e" stroke-width="1" fill="none"></path></g><g transform="translate(878.671875 576.19921875) rotate(0 -289.5310310200136 77.87942724582632)"><path d="M-554.04 122.16 C-565.25 118.54, -575.09 112.03, -580.68 108.36 M-554.04 122.16 C-560.46 117.92, -567.46 115.27, -580.68 108.36" stroke="#1e1e1e" stroke-width="1" fill="none"></path></g></g><mask></mask><g stroke-linecap="round"><g transform="translate(368.984375 267.63671875) rotate(0 -93.80880745254757 157.2743589102989)"><path d="M-1.08 -0.13 C-28.9 15.03, -135.2 37.26, -166.14 89.91 C-197.08 142.56, -183.3 278.37, -186.69 315.79 M0.56 -1.24 C-27.5 13.7, -135.71 35.9, -167.1 88.41 C-198.5 140.92, -184.56 276.01, -187.79 313.81" stroke="#1e1e1e" stroke-width="1" fill="none"></path></g><g transform="translate(368.984375 267.63671875) rotate(0 -93.80880745254757 157.2743589102989)"><path d="M-198.07 285.63 C-194.73 296.07, -188.74 305.47, -187.79 313.81 M-198.07 285.63 C-194.22 294.99, -190 306.32, -187.79 313.81" stroke="#1e1e1e" stroke-width="1" fill="none"></path></g><g transform="translate(368.984375 267.63671875) rotate(0 -93.80880745254757 157.2743589102989)"><path d="M-177.55 285.61 C-181.79 295.88, -183.37 305.28, -187.79 313.81 M-177.55 285.61 C-181.03 294.87, -184.14 306.2, -187.79 313.81" stroke="#1e1e1e" stroke-width="1" fill="none"></path></g></g><mask></mask><g transform="translate(1138.89453125 99.55859375) rotate(0 33.45997619628906 25)"><text x="0" y="0" font-family="Virgil, Segoe UI Emoji" font-size="20px" fill="#1e1e1e" text-anchor="start" style="white-space: pre;" direction="ltr" dominant-baseline="text-before-edge">IX1</text><text x="0" y="25" font-family="Virgil, Segoe UI Emoji" font-size="20px" fill="#1e1e1e" text-anchor="start" style="white-space: pre;" direction="ltr" dominant-baseline="text-before-edge">65002</text></g><g transform="translate(172.18359375 622.44921875) rotate(0 33.14997863769531 25)"><text x="0" y="0" font-family="Virgil, Segoe UI Emoji" font-size="20px" fill="#1e1e1e" text-anchor="start" style="white-space: pre;" direction="ltr" dominant-baseline="text-before-edge">IX2</text><text x="0" y="25" font-family="Virgil, Segoe UI Emoji" font-size="20px" fill="#1e1e1e" text-anchor="start" style="white-space: pre;" direction="ltr" dominant-baseline="text-before-edge">65003</text></g><g transform="translate(10 10) rotate(0 103.08990478515625 12.5)"><text x="0" y="0" font-family="Virgil, Segoe UI Emoji" font-size="20px" fill="#1e1e1e" text-anchor="start" style="white-space: pre;" direction="ltr" dominant-baseline="text-before-edge">containerlab topology</text></g><g stroke-linecap="round" transform="translate(579.1125524812358 349.3275443584623) rotate(0 67.76552859162098 17.5)"><path d="M8.75 0 C45.93 -0.07, 82.76 -0.15, 126.78 0 M8.75 0 C43.93 0.5, 79.24 0.27, 126.78 0 M126.78 0 C132.9 -0.08, 135.48 3.25, 135.53 8.75 M126.78 0 C132.95 0.08, 135.26 2.59, 135.53 8.75 M135.53 8.75 C135.39 13.08, 135.4 17.89, 135.53 26.25 M135.53 8.75 C135.37 13.92, 135.47 18.66, 135.53 26.25 M135.53 26.25 C135.86 32.16, 132.29 34.56, 126.78 35 M135.53 26.25 C135.75 32.28, 132.5 34.97, 126.78 35 M126.78 35 C101.41 35.43, 75.95 34.89, 8.75 35 M126.78 35 C97.46 35.03, 67.53 35.16, 8.75 35 M8.75 35 C3.06 35.45, 0.31 31.71, 0 26.25 M8.75 35 C2.46 35.29, -0.34 31.48, 0 26.25 M0 26.25 C0.41 20.7, -0.27 15.51, 0 8.75 M0 26.25 C-0.2 20.15, 0.22 14.38, 0 8.75 M0 8.75 C0.19 3.29, 2.57 0.44, 8.75 0 M0 8.75 C-0.45 3.51, 3.29 -0.38, 8.75 0" stroke="#1e1e1e" stroke-width="1" fill="none"></path></g><g transform="translate(620.7480990782278 354.3275443584623) rotate(0 26.129981994628906 12.5)"><text x="26.129981994628906" y="0" font-family="Virgil, Segoe UI Emoji" font-size="20px" fill="#1e1e1e" text-anchor="middle" style="white-space: pre;" direction="ltr" dominant-baseline="text-before-edge">csw01</text></g><g stroke-linecap="round" transform="translate(669.0170713786192 408.35272088690397) rotate(0 67.76552859162098 17.5)"><path d="M8.75 0 C35.88 0.22, 63.78 -0.16, 126.78 0 M8.75 0 C46.84 0.1, 84.13 0.15, 126.78 0 M126.78 0 C132.75 -0.46, 135.04 3.14, 135.53 8.75 M126.78 0 C132.85 -0.04, 135.88 2.67, 135.53 8.75 M135.53 8.75 C135.34 15.19, 135.68 21.26, 135.53 26.25 M135.53 8.75 C135.64 13.41, 135.64 17.96, 135.53 26.25 M135.53 26.25 C135.32 31.92, 133.09 34.66, 126.78 35 M135.53 26.25 C135.63 32.33, 132.02 35.22, 126.78 35 M126.78 35 C82.47 34.56, 37.58 34.51, 8.75 35 M126.78 35 C89.63 35.56, 52.68 35.13, 8.75 35 M8.75 35 C3.03 34.79, -0.3 32.47, 0 26.25 M8.75 35 C3 34.62, -0.21 32.31, 0 26.25 M0 26.25 C0.08 19.95, 0.5 13.22, 0 8.75 M0 26.25 C0.21 21.26, 0.14 16.65, 0 8.75 M0 8.75 C-0.12 2.85, 3.45 -0.29, 8.75 0 M0 8.75 C0.36 3.1, 2.46 0.28, 8.75 0" stroke="#1e1e1e" stroke-width="1" fill="none"></path></g><g transform="translate(706.2426219428964 413.35272088690397) rotate(0 30.53997802734375 12.5)"><text x="30.53997802734375" y="0" font-family="Virgil, Segoe UI Emoji" font-size="20px" fill="#1e1e1e" text-anchor="middle" style="white-space: pre;" direction="ltr" dominant-baseline="text-before-edge">csw02</text></g><g transform="translate(13.72924206082547 99.57547180227414) rotate(0 229.72976684570315 12.5)"><text x="0" y="0" font-family="Virgil, Segoe UI Emoji" font-size="20px" fill="#1e1e1e" text-anchor="start" style="white-space: pre;" direction="ltr" dominant-baseline="text-before-edge">https://github.com/nokia/srlinux-container-image</text></g><g stroke-linecap="round"><g transform="translate(571.4579207645583 389.1130284896768) rotate(0 -15.045808612093538 23.530865398706453)"><path d="M-0.25 -0.03 C-5.29 7.82, -25.08 39.47, -29.99 47.34 M0.1 -0.28 C-4.99 7.48, -25.21 38.97, -30.2 46.92" stroke="#1e1e1e" stroke-width="1" fill="none"></path></g><g transform="translate(571.4579207645583 389.1130284896768) rotate(0 -15.045808612093538 23.530865398706453)"><path d="M-24.16 19.59 C-26.57 30.44, -28.76 41.77, -30.2 46.92 M-24.16 19.59 C-25.72 27.05, -27.33 34.29, -30.2 46.92" stroke="#1e1e1e" stroke-width="1" fill="none"></path></g><g transform="translate(571.4579207645583 389.1130284896768) rotate(0 -15.045808612093538 23.530865398706453)"><path d="M-8.01 29.86 C-16.85 36.59, -25.46 43.84, -30.2 46.92 M-8.01 29.86 C-13.83 34.58, -19.72 39.1, -30.2 46.92" stroke="#1e1e1e" stroke-width="1" fill="none"></path></g></g><mask></mask><g stroke-linecap="round"><g transform="translate(575.9665918496588 348.02548867289966) rotate(0 -10.625904694142946 -9.792127605081902)"><path d="M-0.01 0.03 C-3.51 -3.19, -17.63 -16.08, -21.13 -19.3 M-0.27 -0.14 C-3.77 -3.42, -17.77 -16.36, -21.24 -19.61" stroke="#1e1e1e" stroke-width="1" fill="none"></path></g><g transform="translate(575.9665918496588 348.02548867289966) rotate(0 -10.625904694142946 -9.792127605081902)"><path d="M-7.99 -14.01 C-10.97 -15.13, -13.89 -16.28, -21.24 -19.61 M-7.99 -14.01 C-12.63 -15.82, -17.38 -17.9, -21.24 -19.61" stroke="#1e1e1e" stroke-width="1" fill="none"></path></g><g transform="translate(575.9665918496588 348.02548867289966) rotate(0 -10.625904694142946 -9.792127605081902)"><path d="M-14.69 -6.8 C-16.15 -9.56, -17.54 -12.36, -21.24 -19.61 M-14.69 -6.8 C-17 -11.15, -19.41 -15.74, -21.24 -19.61" stroke="#1e1e1e" stroke-width="1" fill="none"></path></g></g><mask></mask><g stroke-linecap="round"><g transform="translate(808.756437403973 398.594789971459) rotate(0 15.605749105321252 -29.19707829867076)"><path d="M-0.26 -0.27 C5.02 -10.07, 26.21 -48.84, 31.47 -58.57 M0.1 0.18 C5.36 -9.59, 25.97 -48.46, 31.26 -58.22" stroke="#1e1e1e" stroke-width="1" fill="none"></path></g><g transform="translate(808.756437403973 398.594789971459) rotate(0 15.605749105321252 -29.19707829867076)"><path d="M27 -28.53 C27.4 -35.3, 28.9 -42.43, 31.26 -58.22 M27 -28.53 C28.2 -36.78, 29.24 -44.69, 31.26 -58.22" stroke="#1e1e1e" stroke-width="1" fill="none"></path></g><g transform="translate(808.756437403973 398.594789971459) rotate(0 15.605749105321252 -29.19707829867076)"><path d="M8.91 -38.21 C13.45 -42.73, 19.08 -47.65, 31.26 -58.22 M8.91 -38.21 C15.09 -43.77, 21.11 -49, 31.26 -58.22" stroke="#1e1e1e" stroke-width="1" fill="none"></path></g></g><mask></mask><g stroke-linecap="round"><g transform="translate(811.9257701715171 438.6954573778894) rotate(0 12.573331299474376 9.326239657568124)"><path d="M-0.01 0.05 C4.23 3.14, 21.19 15.44, 25.41 18.57 M-0.26 -0.1 C3.97 3.01, 21.09 15.65, 25.33 18.75" stroke="#1e1e1e" stroke-width="1" fill="none"></path></g><g transform="translate(811.9257701715171 438.6954573778894) rotate(0 12.573331299474376 9.326239657568124)"><path d="M10.25 14.33 C14.46 15.79, 18.29 16.84, 25.33 18.75 M10.25 14.33 C15.88 15.84, 21.36 17.53, 25.33 18.75" stroke="#1e1e1e" stroke-width="1" fill="none"></path></g><g transform="translate(811.9257701715171 438.6954573778894) rotate(0 12.573331299474376 9.326239657568124)"><path d="M16.62 5.67 C19.08 9.5, 21.17 12.92, 25.33 18.75 M16.62 5.67 C19.9 10.41, 23 15.32, 25.33 18.75" stroke="#1e1e1e" stroke-width="1" fill="none"></path></g></g><mask></mask><g stroke-linecap="round"><g transform="translate(689.3263095175589 388.4903062052773) rotate(0 0.248474796937046 8.381663540846773)"><path d="M0.04 -0.05 C0.16 2.77, 0.54 14.03, 0.62 16.85 M-0.12 -0.2 C0 2.64, 0.47 14.1, 0.56 16.97" stroke="#1e1e1e" stroke-width="1" fill="none"></path></g></g><mask></mask><g transform="translate(664.2637593960762 388.9805099816102) rotate(0 9.10076904296875 9.430407750450001)"><text x="0" y="0" font-family="Virgil, Segoe UI Emoji" font-size="15.088652400719965px" fill="#1e1e1e" text-anchor="start" style="white-space: pre;" direction="ltr" dominant-baseline="text-before-edge">HA</text></g><g transform="translate(12.508059399210765 35.2692868100286) rotate(0 192.03982543945312 12.5)"><text x="0" y="0" font-family="Virgil, Segoe UI Emoji" font-size="20px" fill="#1e1e1e" text-anchor="start" style="white-space: pre;" direction="ltr" dominant-baseline="text-before-edge">https://github.com/srl-labs/containerlab</text></g><g transform="translate(12.281614932156458 79.90310872692521) rotate(0 87.84992980957031 12.5)"><text x="0" y="0" font-family="Virgil, Segoe UI Emoji" font-size="20px" fill="#1e1e1e" text-anchor="start" style="white-space: pre;" direction="ltr" dominant-baseline="text-before-edge">nokia sr container</text></g><g transform="translate(16.543623294215593 152.81418346723717) rotate(0 66.3572006225586 22.78428970404238)"><text x="0" y="0" font-family="Virgil, Segoe UI Emoji" font-size="18.227431763233902px" fill="#1e1e1e" text-anchor="start" style="white-space: pre;" direction="ltr" dominant-baseline="text-before-edge">MGMT network</text><text x="0" y="22.78428970404238" font-family="Virgil, Segoe UI Emoji" font-size="18.227431763233902px" fill="#1e1e1e" text-anchor="start" style="white-space: pre;" direction="ltr" dominant-baseline="text-before-edge">10.0.0.0/24</text></g><g transform="translate(556.6055899165096 280.88066054007953) rotate(0 8.17999267578125 12.5)"><text x="0" y="0" font-family="Virgil, Segoe UI Emoji" font-size="20px" fill="#1e1e1e" text-anchor="start" style="white-space: pre;" direction="ltr" dominant-baseline="text-before-edge">e1</text></g><g transform="translate(810.045472364726 278.5515174503774) rotate(0 8.17999267578125 12.5)"><text x="0" y="0" font-family="Virgil, Segoe UI Emoji" font-size="20px" fill="#1e1e1e" text-anchor="start" style="white-space: pre;" direction="ltr" dominant-baseline="text-before-edge">e1</text></g><g transform="translate(474.75431607530516 334.6358854094717) rotate(0 12.589988708496094 12.5)"><text x="0" y="0" font-family="Virgil, Segoe UI Emoji" font-size="20px" fill="#1e1e1e" text-anchor="start" style="white-space: pre;" direction="ltr" dominant-baseline="text-before-edge">e2</text></g><g transform="translate(471.91567293473076 418.19389375253684) rotate(0 12.589988708496094 12.5)"><text x="0" y="0" font-family="Virgil, Segoe UI Emoji" font-size="20px" fill="#1e1e1e" text-anchor="start" style="white-space: pre;" direction="ltr" dominant-baseline="text-before-edge">e2</text></g><g transform="translate(557.256931455849 477.02901867470086) rotate(0 12.279991149902344 12.5)"><text x="0" y="0" font-family="Virgil, Segoe UI Emoji" font-size="20px" fill="#1e1e1e" text-anchor="start" style="white-space: pre;" direction="ltr" dominant-baseline="text-before-edge">e3</text></g><g transform="translate(810.1182580862794 477.3374103145411) rotate(0 12.279991149902344 12.5)"><text x="0" y="0" font-family="Virgil, Segoe UI Emoji" font-size="20px" fill="#1e1e1e" text-anchor="start" style="white-space: pre;" direction="ltr" dominant-baseline="text-before-edge">e3</text></g><g transform="translate(902.2083704558577 428.91064357448363) rotate(0 11.869987487792969 12.5)"><text x="0" y="0" font-family="Virgil, Segoe UI Emoji" font-size="20px" fill="#1e1e1e" text-anchor="start" style="white-space: pre;" direction="ltr" dominant-baseline="text-before-edge">e4</text></g><g transform="translate(899.6446955967062 337.92849163299286) rotate(0 11.869987487792969 12.5)"><text x="0" y="0" font-family="Virgil, Segoe UI Emoji" font-size="20px" fill="#1e1e1e" text-anchor="start" style="white-space: pre;" direction="ltr" dominant-baseline="text-before-edge">e4</text></g><g transform="translate(973.3604569253007 206.89801823245665) rotate(0 11.649986267089844 12.5)"><text x="0" y="0" font-family="Virgil, Segoe UI Emoji" font-size="20px" fill="#1e1e1e" text-anchor="start" style="white-space: pre;" direction="ltr" dominant-baseline="text-before-edge">e5</text></g><g transform="translate(1002.6362644270921 476.38203448311685) rotate(0 11.649986267089844 12.5)"><text x="0" y="0" font-family="Virgil, Segoe UI Emoji" font-size="20px" fill="#1e1e1e" text-anchor="start" style="white-space: pre;" direction="ltr" dominant-baseline="text-before-edge">e5</text></g><g transform="translate(479.0238708758195 187.08305321636072) rotate(0 11.649986267089844 12.5)"><text x="0" y="0" font-family="Virgil, Segoe UI Emoji" font-size="20px" fill="#1e1e1e" text-anchor="start" style="white-space: pre;" direction="ltr" dominant-baseline="text-before-edge">e5</text></g><g transform="translate(364.49149436067364 231.72900608684967) rotate(0 11.649986267089844 12.5)"><text x="0" y="0" font-family="Virgil, Segoe UI Emoji" font-size="20px" fill="#1e1e1e" text-anchor="start" style="white-space: pre;" direction="ltr" dominant-baseline="text-before-edge">e5</text></g><g transform="translate(359.2873152696202 506.26866048309716) rotate(0 11.649986267089844 12.5)"><text x="0" y="0" font-family="Virgil, Segoe UI Emoji" font-size="20px" fill="#1e1e1e" text-anchor="start" style="white-space: pre;" direction="ltr" dominant-baseline="text-before-edge">e5</text></g><g transform="translate(886.7816139703964 562.0023049368557) rotate(0 11.649986267089844 12.5)"><text x="0" y="0" font-family="Virgil, Segoe UI Emoji" font-size="20px" fill="#1e1e1e" text-anchor="start" style="white-space: pre;" direction="ltr" dominant-baseline="text-before-edge">e5</text></g><g transform="translate(1077.1569395113509 83.51813289740045) rotate(0 8.17999267578125 12.5)"><text x="0" y="0" font-family="Virgil, Segoe UI Emoji" font-size="20px" fill="#1e1e1e" text-anchor="start" style="white-space: pre;" direction="ltr" dominant-baseline="text-before-edge">e1</text></g><g transform="translate(1104.8643512124906 166.82436071738897) rotate(0 12.589988708496094 12.5)"><text x="0" y="0" font-family="Virgil, Segoe UI Emoji" font-size="20px" fill="#1e1e1e" text-anchor="start" style="white-space: pre;" direction="ltr" dominant-baseline="text-before-edge">e2</text></g><g transform="translate(1203.7639721984895 180.1198858544388) rotate(0 12.279991149902344 12.5)"><text x="0" y="0" font-family="Virgil, Segoe UI Emoji" font-size="20px" fill="#1e1e1e" text-anchor="start" style="white-space: pre;" direction="ltr" dominant-baseline="text-before-edge">e3</text></g><g transform="translate(156.80202242377584 576.1550841277544) rotate(0 8.17999267578125 12.5)"><text x="0" y="0" font-family="Virgil, Segoe UI Emoji" font-size="20px" fill="#1e1e1e" text-anchor="start" style="white-space: pre;" direction="ltr" dominant-baseline="text-before-edge">e1</text></g><g transform="translate(245.14771378456192 582.5561839732377) rotate(0 12.589988708496094 12.5)"><text x="0" y="0" font-family="Virgil, Segoe UI Emoji" font-size="20px" fill="#1e1e1e" text-anchor="start" style="white-space: pre;" direction="ltr" dominant-baseline="text-before-edge">e2</text></g><g transform="translate(272.2563514119289 688.600936625042) rotate(0 12.279991149902344 12.5)"><text x="0" y="0" font-family="Virgil, Segoe UI Emoji" font-size="20px" fill="#1e1e1e" text-anchor="start" style="white-space: pre;" direction="ltr" dominant-baseline="text-before-edge">e3</text></g></svg>